# Blender v2.81 (sub 16) OBJ File: 'Panetone.blend'
# www.blender.org
o Cube_Cube.001
v -0.075000 -0.000000 0.075000
v -0.057857 0.150000 0.057857
v -0.075000 -0.000000 -0.075000
v -0.057857 0.150000 -0.057857
v 0.075000 -0.000000 0.075000
v 0.057857 0.150000 0.057857
v 0.075000 -0.000000 -0.075000
v 0.057857 0.150000 -0.057857
vt 0.625000 0.000000
vt 0.375000 0.250000
vt 0.625000 0.250000
vt 0.625000 0.250000
vt 0.375000 0.500000
vt 0.625000 0.500000
vt 0.625000 0.500000
vt 0.375000 0.750000
vt 0.625000 0.750000
vt 0.625000 0.750000
vt 0.375000 1.000000
vt 0.625000 1.000000
vt 0.125000 0.750000
vt 0.375000 0.750000
vt 0.875000 0.500000
vt 0.875000 0.750000
vt 0.375000 0.000000
vt 0.375000 0.250000
vt 0.375000 0.500000
vt 0.375000 0.750000
vt 0.125000 0.500000
vt 0.625000 0.500000
vn -0.9935 0.1136 0.0000
vn 0.0000 0.1136 -0.9935
vn 0.9935 0.1136 0.0000
vn 0.0000 0.1136 0.9935
vn 0.0000 -1.0000 0.0000
vn 0.0000 1.0000 0.0000
s off
f 2/1/1 3/2/1 1/3/1
f 4/4/2 7/5/2 3/6/2
f 8/7/3 5/8/3 7/9/3
f 6/10/4 1/11/4 5/12/4
f 7/5/5 1/13/5 3/14/5
f 4/15/6 6/10/6 8/16/6
f 2/1/1 4/17/1 3/2/1
f 4/4/2 8/18/2 7/5/2
f 8/7/3 6/19/3 5/8/3
f 6/10/4 2/20/4 1/11/4
f 7/5/5 5/21/5 1/13/5
f 4/15/6 2/22/6 6/10/6
