# Blender v2.80 (sub 75) OBJ File: ''
# www.blender.org
o Fundo_Cube.001
v -2.150000 0.125335 -1.800000
v -2.150000 3.025332 -1.799999
v -2.150000 3.025332 -1.924999
v -2.150000 0.125335 -1.925000
v 2.150000 3.025332 -1.924999
v 2.150000 0.125335 -1.925000
v 2.150000 3.025332 -1.799999
v 2.150000 0.125335 -1.800000
vt 0.625000 0.000000
vt 0.375000 0.250000
vt 0.375000 0.000000
vt 0.625000 0.250000
vt 0.375000 0.500000
vt 0.625000 0.500000
vt 0.375000 0.750000
vt 0.625000 0.750000
vt 0.375000 1.000000
vt 0.125000 0.750000
vt 0.125000 0.500000
vt 0.875000 0.500000
vt 0.625000 1.000000
vt 0.875000 0.750000
vn -1.0000 -0.0000 0.0000
vn 0.0000 0.0000 -1.0000
vn 1.0000 0.0000 0.0000
vn 0.0000 -0.0000 1.0000
vn 0.0000 -1.0000 -0.0000
vn 0.0000 1.0000 0.0000
s 1
f 2/1/1 4/2/1 1/3/1
f 3/4/2 6/5/2 4/2/2
f 5/6/3 8/7/3 6/5/3
f 7/8/4 1/9/4 8/7/4
f 6/5/5 1/10/5 4/11/5
f 3/12/6 7/8/6 5/6/6
f 2/1/1 3/4/1 4/2/1
f 3/4/2 5/6/2 6/5/2
f 5/6/3 7/8/3 8/7/3
f 7/8/4 2/13/4 1/9/4
f 6/5/5 8/7/5 1/10/5
f 3/12/6 2/14/6 7/8/6
o Teto_Cube.003
v -2.150000 3.025335 1.800000
v -2.150000 3.150335 1.800000
v -2.150000 3.150335 -1.799999
v -2.150000 3.025335 -1.799999
v 2.150000 3.150335 -1.799999
v 2.150000 3.025335 -1.799999
v 2.150000 3.150335 1.800000
v 2.150000 3.025335 1.800000
vt 0.625000 0.000000
vt 0.375000 0.250000
vt 0.375000 0.000000
vt 0.625000 0.250000
vt 0.375000 0.500000
vt 0.625000 0.500000
vt 0.375000 0.750000
vt 0.625000 0.750000
vt 0.375000 1.000000
vt 0.125000 0.750000
vt 0.125000 0.500000
vt 0.875000 0.500000
vt 0.625000 1.000000
vt 0.875000 0.750000
vn -1.0000 0.0000 0.0000
vn 0.0000 0.0000 -1.0000
vn 1.0000 0.0000 0.0000
vn 0.0000 0.0000 1.0000
vn 0.0000 -1.0000 -0.0000
vn 0.0000 1.0000 0.0000
s 1
f 10/15/7 12/16/7 9/17/7
f 11/18/8 14/19/8 12/16/8
f 13/20/9 16/21/9 14/19/9
f 15/22/10 9/23/10 16/21/10
f 14/19/11 9/24/11 12/25/11
f 11/26/12 15/22/12 13/20/12
f 10/15/7 11/18/7 12/16/7
f 11/18/8 13/20/8 14/19/8
f 13/20/9 15/22/9 16/21/9
f 15/22/10 10/27/10 9/23/10
f 14/19/11 16/21/11 9/24/11
f 11/26/12 10/28/12 15/22/12
o Direita_Cube.008
v 2.150000 0.125335 -1.800000
v 2.150000 0.125335 0.500000
v 2.150000 3.025335 0.500000
v 2.150000 3.025335 -1.799999
v 2.275000 0.125335 0.500000
v 2.275000 3.025335 0.500000
v 2.275000 0.125335 -1.800000
v 2.275000 3.025335 -1.799999
v 2.150000 0.125335 0.720000
v 2.150000 0.125335 1.800000
v 2.150000 3.025335 1.800000
v 2.150000 3.025335 0.720001
v 2.275000 0.125335 1.800000
v 2.275000 3.025335 1.800000
v 2.275000 0.125335 0.720000
v 2.275000 3.025335 0.720001
v 1.750000 0.125335 0.500000
v 1.750000 0.125335 0.720000
v 1.750000 3.025335 0.720001
v 1.750000 3.025335 0.500000
vt 0.375000 0.250000
vt 0.625000 0.000000
vt 0.375000 0.000000
vt 0.375000 0.500000
vt 0.625000 0.250000
vt 0.375000 0.750000
vt 0.625000 0.500000
vt 0.375000 1.000000
vt 0.625000 0.750000
vt 0.125000 0.750000
vt 0.125000 0.500000
vt 0.875000 0.500000
vt 0.375000 0.250000
vt 0.625000 0.000000
vt 0.375000 0.000000
vt 0.375000 0.500000
vt 0.625000 0.250000
vt 0.375000 0.750000
vt 0.625000 0.500000
vt 0.375000 1.000000
vt 0.625000 0.750000
vt 0.125000 0.750000
vt 0.125000 0.500000
vt 0.875000 0.500000
vt 0.375000 0.250000
vt 0.625000 0.000000
vt 0.375000 0.000000
vt 0.375000 0.500000
vt 0.625000 0.250000
vt 0.375000 0.750000
vt 0.625000 0.500000
vt 0.375000 1.000000
vt 0.625000 0.750000
vt 0.125000 0.750000
vt 0.125000 0.500000
vt 0.875000 0.500000
vt 0.625000 1.000000
vt 0.875000 0.750000
vt 0.625000 1.000000
vt 0.875000 0.750000
vt 0.625000 1.000000
vt 0.875000 0.750000
vn -1.0000 0.0000 0.0000
vn 0.0000 -0.0000 1.0000
vn 1.0000 0.0000 0.0000
vn 0.0000 0.0000 -1.0000
vn 0.0000 -1.0000 -0.0000
vn 0.0000 1.0000 0.0000
s 1
f 18/29/13 20/30/13 17/31/13
f 21/32/14 19/33/14 18/29/14
f 23/34/15 22/35/15 21/32/15
f 17/36/16 24/37/16 23/34/16
f 17/38/17 21/32/17 18/39/17
f 24/37/18 19/40/18 22/35/18
f 26/41/13 28/42/13 25/43/13
f 29/44/14 27/45/14 26/41/14
f 31/46/15 30/47/15 29/44/15
f 25/48/16 32/49/16 31/46/16
f 25/50/17 29/44/17 26/51/17
f 32/49/18 27/52/18 30/47/18
f 34/53/13 36/54/13 33/55/13
f 25/56/14 35/57/14 34/53/14
f 18/58/15 28/59/15 25/56/15
f 33/60/16 19/61/16 18/58/16
f 33/62/17 25/56/17 34/63/17
f 19/61/18 35/64/18 28/59/18
f 18/29/13 19/33/13 20/30/13
f 21/32/14 22/35/14 19/33/14
f 23/34/15 24/37/15 22/35/15
f 17/36/16 20/65/16 24/37/16
f 17/38/17 23/34/17 21/32/17
f 24/37/18 20/66/18 19/40/18
f 26/41/13 27/45/13 28/42/13
f 29/44/14 30/47/14 27/45/14
f 31/46/15 32/49/15 30/47/15
f 25/48/16 28/67/16 32/49/16
f 25/50/17 31/46/17 29/44/17
f 32/49/18 28/68/18 27/52/18
f 34/53/13 35/57/13 36/54/13
f 25/56/14 28/59/14 35/57/14
f 18/58/15 19/61/15 28/59/15
f 33/60/16 36/69/16 19/61/16
f 33/62/17 18/58/17 25/56/17
f 19/61/18 36/70/18 35/64/18
o Esquerda_Cube.007
v -2.150000 0.125335 -1.800000
v -2.150000 3.025335 -1.799999
v -2.150000 3.025335 0.500000
v -2.150000 0.125335 0.500000
v -2.275000 3.025335 0.500000
v -2.275000 0.125335 0.500000
v -2.275000 3.025335 -1.799999
v -2.275000 0.125335 -1.800000
v -2.150000 0.125335 0.720000
v -2.150000 3.025335 0.720001
v -2.150000 3.025335 1.800000
v -2.150000 0.125335 1.800000
v -2.275000 3.025335 1.800000
v -2.275000 0.125335 1.800000
v -2.275000 3.025335 0.720001
v -2.275000 0.125335 0.720000
v -2.025000 0.125335 0.500000
v -2.025000 3.025335 0.500000
v -2.025000 3.025335 0.720001
v -2.025000 0.125335 0.720000
vt 0.625000 0.000000
vt 0.375000 0.250000
vt 0.375000 0.000000
vt 0.625000 0.250000
vt 0.375000 0.500000
vt 0.625000 0.500000
vt 0.375000 0.750000
vt 0.625000 0.750000
vt 0.375000 1.000000
vt 0.125000 0.750000
vt 0.125000 0.500000
vt 0.875000 0.500000
vt 0.625000 0.000000
vt 0.375000 0.250000
vt 0.375000 0.000000
vt 0.625000 0.250000
vt 0.375000 0.500000
vt 0.625000 0.500000
vt 0.375000 0.750000
vt 0.625000 0.750000
vt 0.375000 1.000000
vt 0.125000 0.750000
vt 0.125000 0.500000
vt 0.875000 0.500000
vt 0.625000 0.000000
vt 0.375000 0.250000
vt 0.375000 0.000000
vt 0.625000 0.250000
vt 0.375000 0.500000
vt 0.625000 0.500000
vt 0.375000 0.750000
vt 0.625000 0.750000
vt 0.375000 1.000000
vt 0.125000 0.750000
vt 0.125000 0.500000
vt 0.875000 0.500000
vt 0.625000 1.000000
vt 0.875000 0.750000
vt 0.625000 1.000000
vt 0.875000 0.750000
vt 0.625000 1.000000
vt 0.875000 0.750000
vn 1.0000 -0.0000 0.0000
vn 0.0000 -0.0000 1.0000
vn -1.0000 -0.0000 0.0000
vn 0.0000 0.0000 -1.0000
vn 0.0000 -1.0000 -0.0000
vn 0.0000 1.0000 0.0000
s 1
f 38/71/19 40/72/19 37/73/19
f 39/74/20 42/75/20 40/72/20
f 41/76/21 44/77/21 42/75/21
f 43/78/22 37/79/22 44/77/22
f 42/75/23 37/80/23 40/81/23
f 39/82/24 43/78/24 41/76/24
f 46/83/19 48/84/19 45/85/19
f 47/86/20 50/87/20 48/84/20
f 49/88/21 52/89/21 50/87/21
f 51/90/22 45/91/22 52/89/22
f 50/87/23 45/92/23 48/93/23
f 47/94/24 51/90/24 49/88/24
f 54/95/19 56/96/19 53/97/19
f 55/98/20 45/99/20 56/96/20
f 46/100/21 40/101/21 45/99/21
f 39/102/22 53/103/22 40/101/22
f 45/99/23 53/104/23 56/105/23
f 55/106/24 39/102/24 46/100/24
f 38/71/19 39/74/19 40/72/19
f 39/74/20 41/76/20 42/75/20
f 41/76/21 43/78/21 44/77/21
f 43/78/22 38/107/22 37/79/22
f 42/75/23 44/77/23 37/80/23
f 39/82/24 38/108/24 43/78/24
f 46/83/19 47/86/19 48/84/19
f 47/86/20 49/88/20 50/87/20
f 49/88/21 51/90/21 52/89/21
f 51/90/22 46/109/22 45/91/22
f 50/87/23 52/89/23 45/92/23
f 47/94/24 46/110/24 51/90/24
f 54/95/19 55/98/19 56/96/19
f 55/98/20 46/100/20 45/99/20
f 46/100/21 39/102/21 40/101/21
f 39/102/22 54/111/22 53/103/22
f 45/99/23 40/101/23 53/104/23
f 55/106/24 54/112/24 39/102/24
o Piso_Cube.009
v -2.150000 0.000335 1.800000
v -2.150000 0.125335 1.800000
v -2.150000 0.125335 -1.800000
v -2.150000 0.000335 -1.800000
v 2.150000 0.125335 -1.800000
v 2.150000 0.000335 -1.800000
v 2.150000 0.125335 1.800000
v 2.150000 0.000335 1.800000
vt 0.625000 0.000000
vt 0.375000 0.250000
vt 0.375000 0.000000
vt 0.625000 0.250000
vt 0.375000 0.500000
vt 0.625000 0.500000
vt 0.375000 0.750000
vt 0.625000 0.750000
vt 0.375000 1.000000
vt 0.125000 0.750000
vt 0.125000 0.500000
vt 0.875000 0.500000
vt 0.625000 1.000000
vt 0.875000 0.750000
vn -1.0000 0.0000 0.0000
vn 0.0000 0.0000 -1.0000
vn 1.0000 0.0000 0.0000
vn 0.0000 0.0000 1.0000
vn 0.0000 -1.0000 -0.0000
vn 0.0000 1.0000 0.0000
s 1
f 58/113/25 60/114/25 57/115/25
f 59/116/26 62/117/26 60/114/26
f 61/118/27 64/119/27 62/117/27
f 63/120/28 57/121/28 64/119/28
f 62/117/29 57/122/29 60/123/29
f 59/124/30 63/120/30 61/118/30
f 58/113/25 59/116/25 60/114/25
f 59/116/26 61/118/26 62/117/26
f 61/118/27 63/120/27 64/119/27
f 63/120/28 58/125/28 57/121/28
f 62/117/29 64/119/29 57/122/29
f 59/124/30 58/126/30 63/120/30
